# This file uses centimeters as units for non-parametric coordinates.

mtllib FarmCollision.mtl
g default
v -3.000000 0.000000 3.000000
v 3.000000 0.000000 3.000000
v -3.000000 1.000000 3.000000
v 3.000000 1.000000 3.000000
v -3.000000 1.000000 -3.000000
v 3.000000 1.000000 -3.000000
v -3.000000 0.000000 -3.000000
v 3.000000 0.000000 -3.000000
v -0.500000 1.000000 0.500000
v 0.500000 1.000000 0.500000
v 0.500000 1.000000 -0.500000
v -0.500000 1.000000 -0.500000
v -0.500000 5.000000 0.500000
v 0.500000 5.000000 0.500000
v 0.500000 5.000000 -0.500000
v -0.500000 5.000000 -0.500000
vt 0.000000 0.000000
vt 1.000000 0.000000
vt 0.000000 1.000000
vt 1.000000 1.000000
vt 0.000000 2.000000
vt 1.000000 2.000000
vt 0.000000 3.000000
vt 1.000000 3.000000
vt 0.000000 4.000000
vt 1.000000 4.000000
vt 2.000000 0.000000
vt 2.000000 1.000000
vt -1.000000 0.000000
vt -1.000000 1.000000
vt 0.000000 1.000000
vt 1.000000 1.000000
vt 1.000000 2.000000
vt 0.000000 2.000000
vt 0.000000 1.000000
vt 1.000000 1.000000
vt 1.000000 2.000000
vt 0.000000 2.000000
vn 0.000000 0.000000 1.000000
vn 0.000000 0.000000 1.000000
vn 0.000000 0.000000 1.000000
vn 0.000000 0.000000 1.000000
vn 0.000000 1.000000 0.000000
vn 0.000000 1.000000 0.000000
vn 0.000000 1.000000 0.000000
vn 0.000000 1.000000 0.000000
vn 0.000000 0.000000 -1.000000
vn 0.000000 0.000000 -1.000000
vn 0.000000 0.000000 -1.000000
vn 0.000000 0.000000 -1.000000
vn 0.000000 -1.000000 0.000000
vn 0.000000 -1.000000 0.000000
vn 0.000000 -1.000000 0.000000
vn 0.000000 -1.000000 0.000000
vn 1.000000 0.000000 0.000000
vn 1.000000 0.000000 0.000000
vn 1.000000 0.000000 0.000000
vn 1.000000 0.000000 0.000000
vn -1.000000 0.000000 0.000000
vn -1.000000 0.000000 0.000000
vn -1.000000 0.000000 0.000000
vn -1.000000 0.000000 0.000000
vn 0.000000 1.000000 0.000000
vn 0.000000 1.000000 0.000000
vn 0.000000 1.000000 0.000000
vn 0.000000 1.000000 0.000000
vn 0.000000 1.000000 0.000000
vn 0.000000 1.000000 0.000000
vn 0.000000 1.000000 0.000000
vn 0.000000 1.000000 0.000000
vn 0.000000 0.000000 1.000000
vn 0.000000 0.000000 1.000000
vn 0.000000 0.000000 1.000000
vn 0.000000 0.000000 1.000000
vn 1.000000 0.000000 0.000000
vn 1.000000 0.000000 0.000000
vn 1.000000 0.000000 0.000000
vn 1.000000 0.000000 0.000000
vn 0.000000 0.000000 -1.000000
vn 0.000000 0.000000 -1.000000
vn 0.000000 0.000000 -1.000000
vn 0.000000 0.000000 -1.000000
vn -1.000000 0.000000 0.000000
vn -1.000000 0.000000 0.000000
vn -1.000000 0.000000 0.000000
vn -1.000000 0.000000 0.000000
s 1
g pCube1
usemtl initialShadingGroup
f 1/1/1 2/2/2 3/3/3
f 3/3/3 2/2/2 4/4/4
s 2
f 13/19/5 14/20/6 16/22/7
f 16/22/7 14/20/6 15/21/8
s 3
f 5/5/9 6/6/10 7/7/11
f 7/7/11 6/6/10 8/8/12
s 4
f 7/7/13 8/8/14 1/9/15
f 1/9/15 8/8/14 2/10/16
s 5
f 2/2/17 8/11/18 4/4/19
f 4/4/19 8/11/18 6/12/20
s 6
f 7/13/21 1/1/22 5/14/23
f 5/14/23 1/1/22 3/3/24
s 7
f 3/3/25 4/4/26 9/15/27
f 9/15/27 4/4/26 10/16/28
f 4/4/26 6/6/29 10/16/28
f 10/16/28 6/6/29 11/17/30
f 6/6/29 5/5/31 11/17/30
f 11/17/30 5/5/31 12/18/32
f 5/5/31 3/3/25 12/18/32
f 12/18/32 3/3/25 9/15/27
s 8
f 9/15/33 10/16/34 13/19/35
f 13/19/35 10/16/34 14/20/36
s 9
f 10/16/37 11/17/38 14/20/39
f 14/20/39 11/17/38 15/21/40
s 10
f 11/17/41 12/18/42 15/21/43
f 15/21/43 12/18/42 16/22/44
s 11
f 12/18/45 9/15/46 16/22/47
f 16/22/47 9/15/46 13/19/48
g default
v -3.000000 0.000000 3.000000
v 3.000000 0.000000 3.000000
v -3.000000 1.000000 3.000000
v 3.000000 1.000000 3.000000
v -3.000000 1.000000 -3.000000
v 3.000000 1.000000 -3.000000
v -3.000000 0.000000 -3.000000
v 3.000000 0.000000 -3.000000
v -0.500000 1.000000 0.500000
v 0.500000 1.000000 0.500000
v 0.500000 1.000000 -0.500000
v -0.500000 1.000000 -0.500000
v -0.500000 5.000000 0.500000
v 0.500000 5.000000 0.500000
v 0.500000 5.000000 -0.500000
v -0.500000 5.000000 -0.500000
vt 0.000000 0.000000
vt 1.000000 0.000000
vt 0.000000 1.000000
vt 1.000000 1.000000
vt 0.000000 2.000000
vt 1.000000 2.000000
vt 0.000000 3.000000
vt 1.000000 3.000000
vt 0.000000 4.000000
vt 1.000000 4.000000
vt 2.000000 0.000000
vt 2.000000 1.000000
vt -1.000000 0.000000
vt -1.000000 1.000000
vt 0.000000 1.000000
vt 1.000000 1.000000
vt 1.000000 2.000000
vt 0.000000 2.000000
vt 0.000000 1.000000
vt 1.000000 1.000000
vt 1.000000 2.000000
vt 0.000000 2.000000
vn 0.000000 0.000000 1.000000
vn 0.000000 0.000000 1.000000
vn 0.000000 0.000000 1.000000
vn 0.000000 0.000000 1.000000
vn 0.000000 1.000000 0.000000
vn 0.000000 1.000000 0.000000
vn 0.000000 1.000000 0.000000
vn 0.000000 1.000000 0.000000
vn 0.000000 0.000000 -1.000000
vn 0.000000 0.000000 -1.000000
vn 0.000000 0.000000 -1.000000
vn 0.000000 0.000000 -1.000000
vn 0.000000 -1.000000 0.000000
vn 0.000000 -1.000000 0.000000
vn 0.000000 -1.000000 0.000000
vn 0.000000 -1.000000 0.000000
vn 1.000000 0.000000 0.000000
vn 1.000000 0.000000 0.000000
vn 1.000000 0.000000 0.000000
vn 1.000000 0.000000 0.000000
vn -1.000000 0.000000 0.000000
vn -1.000000 0.000000 0.000000
vn -1.000000 0.000000 0.000000
vn -1.000000 0.000000 0.000000
vn 0.000000 1.000000 0.000000
vn 0.000000 1.000000 0.000000
vn 0.000000 1.000000 0.000000
vn 0.000000 1.000000 0.000000
vn 0.000000 1.000000 0.000000
vn 0.000000 1.000000 0.000000
vn 0.000000 1.000000 0.000000
vn 0.000000 1.000000 0.000000
vn 0.000000 0.000000 1.000000
vn 0.000000 0.000000 1.000000
vn 0.000000 0.000000 1.000000
vn 0.000000 0.000000 1.000000
vn 1.000000 0.000000 0.000000
vn 1.000000 0.000000 0.000000
vn 1.000000 0.000000 0.000000
vn 1.000000 0.000000 0.000000
vn 0.000000 0.000000 -1.000000
vn 0.000000 0.000000 -1.000000
vn 0.000000 0.000000 -1.000000
vn 0.000000 0.000000 -1.000000
vn -1.000000 0.000000 0.000000
vn -1.000000 0.000000 0.000000
vn -1.000000 0.000000 0.000000
vn -1.000000 0.000000 0.000000
s 1
g pCube1
f 17/23/49 18/24/50 19/25/51
f 19/25/51 18/24/50 20/26/52
s 2
f 29/41/53 30/42/54 32/44/55
f 32/44/55 30/42/54 31/43/56
s 3
f 21/27/57 22/28/58 23/29/59
f 23/29/59 22/28/58 24/30/60
s 4
f 23/29/61 24/30/62 17/31/63
f 17/31/63 24/30/62 18/32/64
s 5
f 18/24/65 24/33/66 20/26/67
f 20/26/67 24/33/66 22/34/68
s 6
f 23/35/69 17/23/70 21/36/71
f 21/36/71 17/23/70 19/25/72
s 7
f 19/25/73 20/26/74 25/37/75
f 25/37/75 20/26/74 26/38/76
f 20/26/74 22/28/77 26/38/76
f 26/38/76 22/28/77 27/39/78
f 22/28/77 21/27/79 27/39/78
f 27/39/78 21/27/79 28/40/80
f 21/27/79 19/25/73 28/40/80
f 28/40/80 19/25/73 25/37/75
s 8
f 25/37/81 26/38/82 29/41/83
f 29/41/83 26/38/82 30/42/84
s 9
f 26/38/85 27/39/86 30/42/87
f 30/42/87 27/39/86 31/43/88
s 10
f 27/39/89 28/40/90 31/43/91
f 31/43/91 28/40/90 32/44/92
s 11
f 28/40/93 25/37/94 32/44/95
f 32/44/95 25/37/94 29/41/96
