# This file uses centimeters as units for non-parametric coordinates.

mtllib FarmCollision.mtl
g default
v -3.000000 -0.143659 2.999999
v 2.999999 -0.143659 2.999999
v -3.000000 0.143659 2.999999
v 2.999999 0.143659 2.999999
v -3.000000 0.143659 -3.000001
v 2.999999 0.143659 -3.000001
v -3.000000 -0.143659 -3.000001
v 2.999999 -0.143659 -3.000001
v -3.000000 0.143659 0.599999
v -3.000000 0.143659 -0.600002
v 2.999999 0.143659 0.599999
v 2.999999 0.143659 -0.600002
v 0.599999 0.143659 -0.600002
v -0.600000 0.143659 -0.600002
v -0.600000 0.143659 0.599999
v 0.599999 0.143659 0.599999
v -0.600000 3.551129 0.599999
v -0.600000 3.551129 -0.600002
v 0.599999 3.551129 0.599999
v 0.599999 3.551129 -0.600002
v -0.600000 3.976101 0.599999
v -0.600000 3.976101 -0.600002
v 0.599999 3.976101 0.599999
v 0.599999 3.976101 -0.600002
v -0.600000 0.143659 2.999999
v 0.600000 0.143659 2.999999
v -0.600000 0.143659 -3.000001
v 0.600000 0.143659 -3.000001
v -3.000000 -0.448630 -3.000001
v 2.999999 -0.448630 -3.000001
v -3.000000 -0.448630 2.999999
v 2.999999 -0.448630 2.999999
vt 0.375000 0.000000
vt 0.625000 0.000000
vt 0.375000 0.250000
vt 0.625000 0.250000
vt 0.375000 0.500000
vt 0.625000 0.500000
vt 0.375000 0.750000
vt 0.625000 0.750000
vt 0.375000 1.000000
vt 0.625000 1.000000
vt 0.875000 0.000000
vt 0.875000 0.250000
vt 0.125000 0.250000
vt 0.275000 0.250000
vt 0.375000 0.350000
vt 0.225000 0.250000
vt 0.375000 0.400000
vt 0.625000 0.350000
vt 0.725000 0.250000
vt 0.625000 0.400000
vt 0.775000 0.250000
vt 0.525000 0.400000
vt 0.475000 0.400000
vt 0.475000 0.350000
vt 0.525000 0.350000
vt 0.475000 0.400000
vt 0.475000 0.350000
vt 0.525000 0.350000
vt 0.525000 0.400000
vt 0.475000 0.400000
vt 0.475000 0.350000
vt 0.525000 0.350000
vt 0.525000 0.400000
vt 0.475000 0.250000
vt 0.525000 0.250000
vt 0.475000 0.500000
vt 0.525000 0.500000
vt 0.375000 0.750000
vt 0.625000 0.750000
vt 0.375000 1.000000
vt 0.625000 1.000000
vn 0.000000 0.000000 1.000000
vn 0.000000 0.000000 1.000000
vn 0.000000 0.000000 1.000000
vn 0.000000 0.000000 1.000000
vn 0.000000 0.000000 1.000000
vn 0.000000 0.000000 1.000000
vn 0.000000 0.000000 1.000000
vn 0.000000 0.000000 1.000000
vn 0.000000 1.000000 0.000000
vn 0.000000 1.000000 0.000000
vn 0.000000 1.000000 0.000000
vn 0.000000 1.000000 0.000000
vn 0.000000 0.000000 -1.000000
vn 0.000000 0.000000 -1.000000
vn 0.000000 0.000000 -1.000000
vn 0.000000 0.000000 -1.000000
vn 0.000000 0.000000 -1.000000
vn 0.000000 0.000000 -1.000000
vn 0.000000 0.000000 -1.000000
vn 0.000000 0.000000 -1.000000
vn 0.000000 -1.000000 0.000000
vn 0.000000 -1.000000 0.000000
vn 0.000000 -1.000000 0.000000
vn 0.000000 -1.000000 0.000000
vn -1.000000 0.000000 0.000000
vn -1.000000 0.000000 0.000000
vn -1.000000 0.000000 0.000000
vn -1.000000 0.000000 0.000000
vn -1.000000 0.000000 0.000000
vn -1.000000 0.000000 0.000000
vn -1.000000 0.000000 0.000000
vn -1.000000 0.000000 0.000000
vn 0.000000 1.000000 0.000000
vn 0.000000 1.000000 0.000000
vn 0.000000 1.000000 0.000000
vn 0.000000 1.000000 0.000000
vn 0.000000 1.000000 0.000000
vn 0.000000 1.000000 0.000000
vn 0.000000 1.000000 0.000000
vn 0.000000 1.000000 0.000000
vn 0.000000 1.000000 0.000000
vn 0.000000 1.000000 0.000000
vn 0.000000 1.000000 0.000000
vn 0.000000 1.000000 0.000000
vn -1.000000 0.000000 0.000000
vn -1.000000 0.000000 0.000000
vn -1.000000 0.000000 0.000000
vn -1.000000 0.000000 0.000000
vn -1.000000 0.000000 0.000000
vn -1.000000 0.000000 0.000000
vn 1.000000 0.000000 0.000000
vn 1.000000 0.000000 0.000000
vn 1.000000 0.000000 0.000000
vn 1.000000 0.000000 0.000000
vn 1.000000 0.000000 0.000000
vn 1.000000 0.000000 0.000000
vn 0.000000 0.000000 1.000000
vn 0.000000 0.000000 1.000000
vn 0.000000 0.000000 1.000000
vn 0.000000 0.000000 1.000000
vn 0.000000 0.000000 1.000000
vn 0.000000 0.000000 1.000000
vn 0.000000 0.000000 -1.000000
vn 0.000000 0.000000 -1.000000
vn 0.000000 0.000000 -1.000000
vn 0.000000 0.000000 -1.000000
vn 0.000000 0.000000 -1.000000
vn 0.000000 0.000000 -1.000000
vn 0.000000 1.000000 0.000000
vn 0.000000 1.000000 0.000000
vn 0.000000 1.000000 0.000000
vn 0.000000 1.000000 0.000000
vn 1.000000 0.000000 0.000000
vn 1.000000 -0.000000 0.000000
vn 1.000000 -0.000000 0.000000
vn 1.000000 0.000000 0.000000
vn 1.000000 0.000000 0.000000
vn 1.000000 -0.000000 0.000000
vn 1.000000 0.000001 0.000000
vn 1.000000 0.000000 0.000000
s 1
g pCube2
usemtl initialShadingGroup
f 3/3/1 1/9/2 25/34/3
f 31/40/4 32/41/5 1/9/2
f 32/41/5 2/2/6 1/9/2
f 1/9/2 2/2/6 25/34/3
f 25/34/3 2/2/6 26/35/7
f 26/35/7 2/2/6 4/4/8
s 3
f 13/22/9 16/25/10 12/20/11
f 12/20/11 16/25/10 11/18/12
s 4
f 30/39/13 29/38/14 8/8/15
f 29/38/14 7/7/16 8/8/15
f 8/8/15 7/7/16 6/6/17
f 6/6/17 7/7/16 28/37/18
f 28/37/18 7/7/16 27/36/19
f 7/7/16 5/5/20 27/36/19
s 5
f 29/38/21 30/39/22 31/40/23
f 31/40/23 30/39/22 32/41/24
s 6
f 5/13/25 7/7/26 10/16/27
f 29/38/28 31/40/29 7/7/26
f 31/40/29 1/1/30 7/7/26
f 7/7/26 1/1/30 10/16/27
f 10/16/27 1/1/30 9/14/31
f 9/14/31 1/1/30 3/3/32
s 3
f 15/24/33 25/34/34 16/25/10
f 16/25/10 25/34/34 26/35/35
f 27/36/36 14/23/37 28/37/38
f 28/37/38 14/23/37 13/22/9
f 9/15/39 15/24/33 10/17/40
f 10/17/40 15/24/33 14/23/37
s 10
f 22/30/41 21/31/42 24/33/43
f 24/33/43 21/31/42 23/32/44
s 11
f 21/31/45 22/30/46 17/27/47
f 22/30/46 18/26/48 17/27/47
f 17/27/47 18/26/48 15/24/49
f 18/26/48 14/23/50 15/24/49
s 12
f 24/33/51 23/32/52 20/29/53
f 23/32/52 19/28/54 20/29/53
f 20/29/53 19/28/54 13/22/55
f 19/28/54 16/25/56 13/22/55
s 13
f 16/25/57 19/28/58 15/24/59
f 23/32/60 21/31/61 19/28/58
f 21/31/61 17/27/62 19/28/58
f 19/28/58 17/27/62 15/24/59
s 15
f 14/23/63 18/26/64 13/22/65
f 22/30/66 24/33/67 18/26/64
f 24/33/67 20/29/68 18/26/64
f 18/26/64 20/29/68 13/22/65
s 3
f 3/3/69 25/34/34 9/15/39
f 9/15/39 25/34/34 15/24/33
f 16/25/10 26/35/35 11/18/12
f 11/18/12 26/35/35 4/4/70
f 28/37/38 13/22/9 6/6/71
f 6/6/71 13/22/9 12/20/11
f 10/17/40 14/23/37 5/5/72
f 5/5/72 14/23/37 27/36/36
s 17
f 4/4/73 2/10/74 11/19/75
f 32/41/76 30/39/77 2/10/74
f 30/39/77 8/11/78 2/10/74
f 2/10/74 8/11/78 11/19/75
f 11/19/75 8/11/78 12/21/79
f 12/21/79 8/11/78 6/12/80
