# This file uses centimeters as units for non-parametric coordinates.

mtllib SmallHouseCollision.mtl
g default
v -1.000000 0.000000 2.000000
v 2.000000 0.000000 2.000000
v -1.000000 2.000000 2.000000
v 2.000000 2.000000 2.000000
v -1.000000 2.000000 -1.000000
v 2.000000 2.000000 -1.000000
v -1.000000 0.000000 -1.000000
v 2.000000 0.000000 -1.000000
v -1.000000 0.000000 4.000000
v 2.000000 0.000000 4.000000
v 2.000000 2.000000 4.000000
v -1.000000 2.000000 4.000000
v -2.000000 0.000000 2.000000
v -2.000000 2.000000 2.000000
v -2.000000 0.000000 4.000000
v -2.000000 2.000000 4.000000
vt 0.000000 0.000000
vt 1.000000 0.000000
vt 0.000000 1.000000
vt 1.000000 1.000000
vt 0.000000 2.000000
vt 1.000000 2.000000
vt 0.000000 3.000000
vt 1.000000 3.000000
vt 0.000000 4.000000
vt 1.000000 4.000000
vt 2.000000 0.000000
vt 2.000000 1.000000
vt -1.000000 0.000000
vt -1.000000 1.000000
vt 0.000000 0.000000
vt 1.000000 0.000000
vt 1.000000 1.000000
vt 0.000000 1.000000
vt 0.000000 1.000000
vt 0.000000 0.000000
vt 0.000000 0.000000
vt 0.000000 1.000000
vn 0.000000 0.000000 1.000000
vn 0.000000 0.000000 1.000000
vn 0.000000 0.000000 1.000000
vn 0.000000 0.000000 1.000000
vn 0.000000 1.000000 0.000000
vn 0.000000 1.000000 0.000000
vn 0.000000 1.000000 0.000000
vn 0.000000 1.000000 0.000000
vn 0.000000 0.000000 -1.000000
vn 0.000000 0.000000 -1.000000
vn 0.000000 0.000000 -1.000000
vn 0.000000 0.000000 -1.000000
vn 0.000000 -1.000000 0.000000
vn 0.000000 -1.000000 0.000000
vn 0.000000 -1.000000 0.000000
vn 0.000000 -1.000000 0.000000
vn 1.000000 0.000000 0.000000
vn 1.000000 0.000000 0.000000
vn 1.000000 0.000000 0.000000
vn 1.000000 0.000000 0.000000
vn -1.000000 0.000000 0.000000
vn -1.000000 0.000000 0.000000
vn -1.000000 0.000000 0.000000
vn -1.000000 0.000000 0.000000
vn 0.000000 -1.000000 0.000000
vn 0.000000 -1.000000 0.000000
vn 1.000000 0.000000 0.000000
vn 1.000000 0.000000 0.000000
vn 0.000000 1.000000 0.000000
vn 0.000000 1.000000 0.000000
vn -1.000000 0.000000 -0.000000
vn -1.000000 0.000000 0.000000
vn -1.000000 0.000000 0.000000
vn -1.000000 -0.000000 0.000000
vn 0.000000 0.000000 -1.000000
vn 0.000000 0.000000 -1.000000
vn 0.000000 0.000000 -1.000000
vn 0.000000 0.000000 -1.000000
vn 0.000000 -1.000000 0.000000
vn 0.000000 -1.000000 0.000000
vn 0.000000 0.000000 1.000000
vn 0.000000 0.000000 1.000000
vn 0.000000 1.000000 0.000000
vn 0.000000 1.000000 0.000000
s 1
g pCube1
usemtl initialShadingGroup
f 9/15/1 10/16/2 12/18/3
f 12/18/3 10/16/2 11/17/4
s 2
f 3/3/5 4/4/6 5/5/7
f 5/5/7 4/4/6 6/6/8
s 3
f 5/5/9 6/6/10 7/7/11
f 7/7/11 6/6/10 8/8/12
s 4
f 7/7/13 8/8/14 1/9/15
f 1/9/15 8/8/14 2/10/16
s 5
f 2/2/17 8/11/18 4/4/19
f 4/4/19 8/11/18 6/12/20
s 6
f 7/13/21 1/1/22 5/14/23
f 5/14/23 1/1/22 3/3/24
s 4
f 1/1/15 2/2/16 9/15/25
f 9/15/25 2/2/16 10/16/26
s 5
f 2/2/17 4/4/19 10/16/27
f 10/16/27 4/4/19 11/17/28
s 2
f 4/4/6 3/3/5 11/17/29
f 11/17/29 3/3/5 12/18/30
s 7
f 14/19/31 13/20/32 16/22/33
f 16/22/33 13/20/32 15/21/34
s 8
f 3/3/35 1/1/36 14/19/37
f 14/19/37 1/1/36 13/20/38
s 4
f 1/1/15 9/15/25 13/20/39
f 13/20/39 9/15/25 15/21/40
s 1
f 9/15/1 12/18/3 15/21/41
f 15/21/41 12/18/3 16/22/42
s 2
f 12/18/30 3/3/5 16/22/43
f 16/22/43 3/3/5 14/19/44
