# This file uses centimeters as units for non-parametric coordinates.

mtllib SmallHousePlaceHolder.mtl
g default
v -1.500000 0.000000 1.500000
v 1.500000 0.000000 1.500000
v -1.500000 2.000000 1.500000
v 1.500000 2.000000 1.500000
v -1.500000 2.000000 -1.500000
v 1.500000 2.000000 -1.500000
v -1.500000 0.000000 -1.500000
v 1.500000 0.000000 -1.500000
v -1.500000 0.000000 3.500000
v 1.500000 0.000000 3.500000
v 1.500000 2.000000 3.500000
v -1.500000 2.000000 3.500000
v -2.500000 0.000000 1.500000
v -2.500000 2.000000 1.500000
v -2.500000 0.000000 3.500000
v -2.500000 2.000000 3.500000
vt 0.000000 0.000000
vt 1.000000 0.000000
vt 0.000000 1.000000
vt 1.000000 1.000000
vt 0.000000 1.000000
vt 1.000000 1.000000
vt 0.000000 2.000000
vt 1.000000 2.000000
vt 0.000000 3.000000
vt 1.000000 3.000000
vt 0.000000 4.000000
vt 1.000000 4.000000
vt 1.000000 0.000000
vt 2.000000 0.000000
vt 2.000000 1.000000
vt -1.000000 0.000000
vt 0.000000 0.000000
vt -1.000000 1.000000
vt 0.000000 1.000000
vt 0.000000 0.000000
vt 0.000000 1.000000
vt 0.000000 0.000000
vn 0.000000 0.000000 1.000000
vn 0.000000 0.000000 1.000000
vn 0.000000 0.000000 1.000000
vn 0.000000 0.000000 1.000000
vn 0.000000 0.000000 1.000000
vn 0.000000 0.000000 1.000000
vn 0.000000 1.000000 0.000000
vn 0.000000 1.000000 0.000000
vn 0.000000 1.000000 0.000000
vn 0.000000 1.000000 0.000000
vn 0.000000 1.000000 0.000000
vn 0.000000 1.000000 0.000000
vn 0.000000 0.000000 -1.000000
vn 0.000000 0.000000 -1.000000
vn 0.000000 0.000000 -1.000000
vn 0.000000 0.000000 -1.000000
vn 0.000000 0.000000 -1.000000
vn 0.000000 0.000000 -1.000000
vn 0.000000 -1.000000 0.000000
vn 0.000000 -1.000000 0.000000
vn 0.000000 -1.000000 0.000000
vn 0.000000 -1.000000 0.000000
vn 0.000000 -1.000000 0.000000
vn 0.000000 -1.000000 0.000000
vn 1.000000 0.000000 0.000000
vn 1.000000 0.000000 0.000000
vn 1.000000 0.000000 0.000000
vn 1.000000 0.000000 0.000000
vn 1.000000 0.000000 0.000000
vn 1.000000 0.000000 0.000000
vn -1.000000 0.000000 0.000000
vn -1.000000 0.000000 0.000000
vn -1.000000 0.000000 0.000000
vn -1.000000 0.000000 0.000000
vn -1.000000 0.000000 0.000000
vn -1.000000 0.000000 0.000000
vn 0.000000 -1.000000 0.000000
vn 0.000000 -1.000000 0.000000
vn 0.000000 -1.000000 0.000000
vn 0.000000 -1.000000 0.000000
vn 0.000000 -1.000000 0.000000
vn 0.000000 -1.000000 0.000000
vn 1.000000 0.000000 0.000000
vn 1.000000 0.000000 0.000000
vn 1.000000 0.000000 0.000000
vn 1.000000 0.000000 0.000000
vn 1.000000 0.000000 0.000000
vn 1.000000 0.000000 0.000000
vn 0.000000 1.000000 0.000000
vn 0.000000 1.000000 0.000000
vn 0.000000 1.000000 0.000000
vn 0.000000 1.000000 0.000000
vn 0.000000 1.000000 0.000000
vn 0.000000 1.000000 0.000000
vn -1.000000 0.000000 -0.000000
vn -1.000000 0.000000 0.000000
vn -1.000000 0.000000 0.000000
vn -1.000000 0.000000 0.000000
vn -1.000000 0.000000 0.000000
vn -1.000000 0.000000 0.000000
vn 0.000000 0.000000 -1.000000
vn 0.000000 0.000000 -1.000000
vn 0.000000 0.000000 -1.000000
vn 0.000000 0.000000 -1.000000
vn 0.000000 0.000000 -1.000000
vn 0.000000 0.000000 -1.000000
vn 0.000000 -1.000000 0.000000
vn 0.000000 -1.000000 0.000000
vn 0.000000 -1.000000 0.000000
vn 0.000000 -1.000000 0.000000
vn 0.000000 -1.000000 0.000000
vn 0.000000 -1.000000 0.000000
vn 0.000000 0.000000 1.000000
vn 0.000000 0.000000 1.000000
vn 0.000000 0.000000 1.000000
vn 0.000000 0.000000 1.000000
vn 0.000000 0.000000 1.000000
vn 0.000000 0.000000 1.000000
vn 0.000000 1.000000 0.000000
vn 0.000000 1.000000 0.000000
vn 0.000000 1.000000 0.000000
vn 0.000000 1.000000 0.000000
vn 0.000000 1.000000 0.000000
vn 0.000000 1.000000 0.000000
s off
g initialShadingGroup pCube1
f 9/1/1 10/2/2 12/3/3
f 12/3/4 10/2/5 11/4/6
f 3/5/7 4/6/8 5/7/9
f 5/7/10 4/6/11 6/8/12
f 5/7/13 6/8/14 7/9/15
f 7/9/16 6/8/17 8/10/18
f 7/9/19 8/10/20 1/11/21
f 1/11/22 8/10/23 2/12/24
f 2/13/25 8/14/26 4/6/27
f 4/6/28 8/14/29 6/15/30
f 7/16/31 1/17/32 5/18/33
f 5/18/34 1/17/35 3/5/36
f 1/17/37 2/13/38 9/1/39
f 9/1/40 2/13/41 10/2/42
f 2/13/43 4/6/44 10/2/45
f 10/2/46 4/6/47 11/4/48
f 4/6/49 3/5/50 11/4/51
f 11/4/52 3/5/53 12/3/54
f 14/19/55 13/20/56 16/21/57
f 16/21/58 13/20/59 15/22/60
f 3/5/61 1/17/62 14/19/63
f 14/19/64 1/17/65 13/20/66
f 1/17/67 9/1/68 13/20/69
f 13/20/70 9/1/71 15/22/72
f 9/1/73 12/3/74 15/22/75
f 15/22/76 12/3/77 16/21/78
f 12/3/79 3/5/80 16/21/81
f 16/21/82 3/5/83 14/19/84
